<?xml version="1.0" encoding="UTF-8"?>
<!DOCTYPE svg PUBLIC "-//W3C//DTD SVG 1.1//EN" "http://www.w3.org/Graphics/SVG/1.1/DTD/svg11.dtd">
<!-- Creator: CorelDRAW -->
<svg xmlns="http://www.w3.org/2000/svg" xml:space="preserve" width="2.66666in" height="2.66666in" version="1.1" style="shape-rendering:geometricPrecision; text-rendering:geometricPrecision; image-rendering:optimizeQuality; fill-rule:evenodd; clip-rule:evenodd"
viewBox="0 0 2666.66 2666.66"
 xmlns:xlink="http://www.w3.org/1999/xlink"
 xmlns:xodm="http://www.corel.com/coreldraw/odm/2003">
 <defs>
  <style type="text/css">
   <![CDATA[
    .fil1 {fill:black}
    .fil0 {fill:#C7CEEA}
    .fil3 {fill:#FF7E6A}
    .fil2 {fill:#FFAD92}
   ]]>
  </style>
 </defs>
 <g id="Layer_x0020_1">
  <metadata id="CorelCorpID_0Corel-Layer"/>
  <circle class="fil0" cx="1333.33" cy="1333.33" r="1333.33"/>
  <path class="fil1" d="M1878.5 2186.65l-1090.36 0c-37.17,0 -67.4,-30.25 -67.4,-67.42l0 -1468.11c0,-37.16 30.24,-67.41 67.4,-67.41l222.96 0c26.33,0 26.33,40 0,40l-222.96 0c-15.11,0 -27.4,12.3 -27.4,27.42l0 1468.11c0,15.12 12.3,27.42 27.4,27.42l1090.36 0c15.11,0 27.4,-12.3 27.4,-27.42l0 -1468.11c0,-15.11 -12.3,-27.42 -27.4,-27.42l-222.97 0c-26.33,0 -26.32,-40 0,-40l222.97 0c37.17,0 67.42,30.24 67.42,67.41l0 1468.11c-0.02,37.18 -30.25,67.42 -67.42,67.42z"/>
  <path class="fil1" d="M1655.53 727.43l-644.43 0c-11.04,0 -20,-8.96 -20,-20l0 -207.41c0,-11.04 8.96,-20 20,-20l644.43 0c11.04,0 20,8.96 20,20l0 207.41c0.02,11.04 -8.95,20 -20,20zm-624.43 -40l604.43 0 0 -167.41 -604.43 0 0 167.41z"/>
  <path class="fil1" d="M1085.18 1095.25l-188.89 0c-11.04,0 -20,-8.96 -20,-20l0 -188.88c0,-11.04 8.96,-20 20,-20l188.89 0c11.04,0 20,8.96 20,20l0 188.88c0,11.04 -8.96,20 -20,20zm-168.89 -40l148.89 0 0 -148.89 -148.89 0 0 148.89z"/>
  <path class="fil1" d="M1770.35 931.37l-548.15 0c-26.33,0 -26.33,-40 0,-40l548.15 0c26.32,0 26.33,40 0,40z"/>
  <path class="fil1" d="M1770.35 1070.24l-548.15 0c-26.33,0 -26.33,-40 0,-40l548.15 0c26.32,0 26.33,40 0,40z"/>
  <path class="fil1" d="M1085.18 1399.41l-188.89 0c-11.04,0 -20,-8.97 -20,-20l0 -188.88c0,-11.04 8.96,-20 20,-20l188.89 0c11.04,0 20,8.96 20,20l0 188.88c0,11.03 -8.96,20 -20,20zm-168.89 -40.02l148.89 0 0 -148.88 -148.89 0 0 148.88z"/>
  <path class="fil1" d="M1770.35 1235.53l-548.15 0c-26.33,0 -26.33,-40 0,-40l548.15 0c26.32,0 26.33,40 0,40z"/>
  <path class="fil1" d="M1770.35 1374.4l-548.15 0c-26.32,0 -26.32,-40 0,-40l548.15 0c26.32,0 26.33,40 0,40z"/>
  <path class="fil1" d="M1085.18 1703.54l-188.89 0c-11.04,0 -20,-8.97 -20,-20l0 -188.88c0,-11.04 8.96,-20 20,-20l188.89 0c11.04,0 20,8.97 20,20l0 188.88c0,11.05 -8.96,20 -20,20zm-168.89 -40.01l148.89 0 0 -148.86 -148.89 0 0 148.86z"/>
  <path class="fil1" d="M1770.35 1539.67l-548.15 0c-26.32,0 -26.32,-40 0,-40l548.15 0c26.32,0 26.33,40 0,40z"/>
  <path class="fil1" d="M1770.35 1678.55l-548.15 0c-26.32,0 -26.32,-40 0,-40l548.15 0c26.32,0 26.33,40 0,40z"/>
  <path class="fil1" d="M1085.18 2007.7l-188.89 0c-11.04,0 -20,-8.97 -20,-20l0 -188.88c0,-11.04 8.96,-20 20,-20l188.89 0c11.04,0 20,8.97 20,20l0 188.88c0,11.03 -8.96,20 -20,20zm-168.89 -40.01l148.89 0 0 -148.87 -148.89 0 0 148.87z"/>
  <path class="fil1" d="M1770.35 1843.83l-548.15 0c-26.32,0 -26.32,-40 0,-40l548.15 0c26.32,0 26.33,40 0,40z"/>
  <path class="fil1" d="M1770.35 1982.71l-548.15 0c-26.32,0 -26.32,-40 0,-40l548.15 0c26.32,0 26.33,40 0,40z"/>
  <path class="fil1" d="M973.61 1022.74c-14.05,0 -23.5,-17.29 -35.93,-32.76 -16.42,-20.44 14.76,-45.5 31.18,-25.04l7.79 9.7c25.48,-20.46 50.14,-49.37 67.11,-28.26 6.92,8.61 5.54,21.19 -3.07,28.11 -16.62,13.35 -54.24,48.26 -67.08,48.26z"/>
  <path class="fil1" d="M973.6 1326.89c-14.11,0 -23.4,-17.18 -35.92,-32.76 -16.43,-20.45 14.77,-45.48 31.18,-25.04l7.79 9.69c25.38,-20.4 50.13,-49.39 67.11,-28.29 6.92,8.61 5.54,21.2 -3.06,28.13 -16.58,13.34 -54.24,48.27 -67.11,48.27z"/>
  <path class="fil1" d="M973.6 1631.06c-14.11,0 -23.42,-17.2 -35.92,-32.77 -16.43,-20.44 14.77,-45.49 31.18,-25.06l7.79 9.71c25.44,-20.45 50.13,-49.4 67.09,-28.3 6.93,8.61 5.56,21.2 -3.06,28.11 -16.59,13.33 -54.28,48.3 -67.09,48.3z"/>
  <path class="fil1" d="M973.61 1935.19c-14.03,0 -23.49,-17.3 -35.92,-32.74 -16.44,-20.44 14.73,-45.48 31.17,-25.06l7.81 9.7c25.47,-20.47 50.14,-49.37 67.11,-28.28 6.92,8.61 5.54,21.2 -3.07,28.11 -16.58,13.32 -54.27,48.27 -67.09,48.27z"/>
  <path class="fil2" d="M1222.2 891.37l548.15 0c26.32,0 26.33,40 0,40l-548.15 0c-26.33,0 -26.33,-40 0,-40zm0 138.87l548.15 0c26.32,0 26.33,40 0,40l-548.15 0c-26.33,0 -26.33,-40 0,-40zm0 165.29l548.15 0c26.32,0 26.33,40 0,40l-548.15 0c-26.33,0 -26.33,-40 0,-40zm0 138.87l548.15 0c26.32,0 26.33,40 0,40l-548.15 0c-26.32,0 -26.32,-40 0,-40zm-117.02 160.26l0 188.88c0,11.05 -8.96,20 -20,20l-188.89 0c-11.04,0 -20,-8.97 -20,-20l0 -188.88c0,-11.04 8.96,-20 20,-20l188.89 0c11.04,0 20,8.97 20,20zm-208.89 284.16l188.89 0c11.04,0 20,8.97 20,20l0 188.88c0,11.03 -8.96,20 -20,20l-188.89 0c-11.04,0 -20,-8.97 -20,-20l0 -188.88c0,-11.04 8.96,-20 20,-20zm188.89 -608.29c11.04,0 20,8.96 20,20l0 188.88c0,11.03 -8.96,20 -20,20l-188.89 0c-11.04,0 -20,-8.97 -20,-20l0 -188.88c0,-11.04 8.96,-20 20,-20l188.89 0zm20 -284.16l0 188.88c0,11.04 -8.96,20 -20,20l-188.89 0c-11.04,0 -20,-8.96 -20,-20l0 -188.88c0,-11.04 8.96,-20 20,-20l188.89 0c11.04,0 20,8.96 20,20zm117.02 613.3l548.15 0c26.32,0 26.33,40 0,40l-548.15 0c-26.32,0 -26.32,-40 0,-40zm0 138.87l548.15 0c26.32,0 26.33,40 0,40l-548.15 0c-26.32,0 -26.32,-40 0,-40zm0 165.29l548.15 0c26.32,0 26.33,40 0,40l-548.15 0c-26.32,0 -26.32,-40 0,-40zm0 138.87l548.15 0c26.32,0 26.33,40 0,40l-548.15 0c-26.32,0 -26.32,-40 0,-40zm-434.06 203.94l1090.36 0c15.11,0 27.4,-12.3 27.4,-27.42l0 -1468.11c0,-15.11 -12.3,-27.42 -27.4,-27.42l-202.97 0 0 83.72c0.02,11.04 -8.95,20 -20,20l-644.43 0c-11.04,0 -20,-8.96 -20,-20l0 -83.72 -202.96 0c-15.11,0 -27.4,12.3 -27.4,27.42l0 1468.11c0,15.12 12.3,27.42 27.4,27.42z"/>
  <polygon class="fil3" points="1031.1,687.43 1635.53,687.43 1635.53,520.01 1031.1,520.01 "/>
  <path class="fil3" d="M1065.18 906.37l-148.89 0 0 148.89 148.89 0 0 -148.89zm-127.5 83.61c-16.42,-20.44 14.76,-45.5 31.18,-25.04l7.79 9.7c25.48,-20.46 50.14,-49.37 67.11,-28.26 6.92,8.61 5.54,21.19 -3.07,28.11 -74.78,60.04 -64.8,63.06 -103.01,15.5z"/>
  <path class="fil3" d="M1065.18 1210.52l-148.89 0 0 148.88 148.89 0 0 -148.88zm-96.32 58.57l7.79 9.69c25.38,-20.4 50.13,-49.39 67.11,-28.29 6.92,8.61 5.54,21.2 -3.06,28.13 -74.97,60.37 -65.02,62.81 -103.03,15.51 -16.43,-20.45 14.77,-45.48 31.18,-25.04z"/>
  <path class="fil3" d="M1043.74 1554.65c6.93,8.61 5.56,21.2 -3.06,28.11 -74.94,60.19 -64.84,63.04 -103.01,15.53 -16.43,-20.44 14.77,-45.49 31.18,-25.06l7.79 9.71c25.44,-20.45 50.13,-49.4 67.09,-28.3zm21.44 -39.98l-148.89 0 0 148.86 148.89 0 0 -148.86z"/>
  <path class="fil3" d="M1065.18 1818.82l-148.89 0 0 148.87 148.89 0 0 -148.87zm-96.32 58.57l7.81 9.7c25.47,-20.47 50.14,-49.37 67.11,-28.28 6.92,8.61 5.54,21.2 -3.07,28.11 -74.84,60.09 -64.8,63.04 -103.01,15.53 -16.44,-20.44 14.73,-45.48 31.17,-25.06z"/>
 </g>
</svg>
